<?xml version="1.0" encoding="utf-8"?>
<!-- Generator: Adobe Illustrator 14.0.0, SVG Export Plug-In . SVG Version: 6.00 Build 43363)  -->
<!DOCTYPE svg PUBLIC "-//W3C//DTD SVG 1.1//EN" "http://www.w3.org/Graphics/SVG/1.1/DTD/svg11.dtd">
<svg version="1.1" id="Layer_1" xmlns="http://www.w3.org/2000/svg" xmlns:xlink="http://www.w3.org/1999/xlink" x="0px" y="0px"
	 width="210px" height="100px" viewBox="0 0 210 100" enable-background="new 0 0 210 100" xml:space="preserve">
<path fill="#EC2127" d="M192.621,33.24c-1.7-0.9-2.7-2.4-3-4.5l-1.5-5.9l-0.406-0.023c-0.457-3.487-13.953-5.779-40.895-6.677
	c-1.899-0.1-7.301-0.3-9.301-0.3c-9.299-0.3-19.799-0.4-31.6-0.4c-5.4,0-11.1,0-16.9,0.1c-0.2-0.1-0.399-0.1-0.5,0l-3.5-0.2
	c-0.2-0.1-0.5-0.1-0.899-0.1l-62.2,1.1c-3.3,0-5.1,1-5.7,3.5c-0.1,0.6-0.2,1.4-0.1,2.1v55.3c-0.101,0.699,0,1.5,0.1,2.1
	c0.6,2.4,2.4,3.5,5.7,3.4l62.2,1.199c0.399,0,0.7,0,0.899-0.1l3.5-0.199c0.101,0.1,0.3,0.1,0.5-0.101c5.8,0.101,11.5,0.2,16.9,0.2
	c11.801,0,25.801-0.301,35.1-0.5c2,0,3.9-0.2,5.801-0.2c26.94-0.998,40.438-3.19,40.895-6.677l0.406-0.023l1.5-5.9
	c0.3-2.1,1.3-3.5,3-4.5c0.5-5.5,0.8-10.899,0.8-16.199c0-0.1,0-0.1,0-0.1c0-0.1,0-0.1,0-0.1
	C193.421,44.14,193.121,38.74,192.621,33.24z"/>
<g>
	<path fill="#81272D" d="M18.121,22.082v54.9l6.2-3.5v-47.9L18.121,22.082z"/>
	<path fill="#81272D" d="M24.321,73.48l-6.2,3.5l68.1,0.201V74.98v-1.5H24.321z"/>
	<path fill="#81272D" d="M18.121,22.082l6.2,3.5h61.9v-1.6v-2.1L18.121,22.082z"/>
	<g>
		<path fill="#81272D" d="M18.521,19.582c21.98-1.374,46.267-1.586,68.901-0.743c-0.099,0.856-0.17,1.856-0.201,3.043l21.5,0.5
			l24.301,0.2c1.799-0.9,3.799-1.6,6.199-1.9c2.301-0.4,5-0.4,7.9-0.3l8.898,0.6l31.701,1.8c-0.4-3.5-13.9-5.8-40.9-6.7
			c-1.899-0.1-3.801-0.2-5.801-0.2c-9.3-0.3-23.3-0.5-35.1-0.5c-5.4,0-11.1,0-16.9,0.1c-0.2-0.1-0.399-0.1-0.5,0
			c-0.2-0.1-4-0.3-4.399-0.3l-62.2,1.1c-3.3,0-5.1,1-5.7,3.5c-0.1,0.6-0.2,1.4-0.1,2.1C16.421,20.782,17.221,19.981,18.521,19.582z"
			/>
		<path fill="#81272D" d="M147.121,78.582c-2.9,0.3-5.602,0.2-7.9-0.2c-2.4-0.399-4.4-1-6.199-2l-24.301,0.3l-21.5,0.4
			c0.029,1.148,0.098,2.132,0.191,2.982c-22.71,0.86-46.815,0.795-68.892-0.684c-1.3-0.4-2.1-1.1-2.399-2.199
			c-0.101,0.699,0,1.5,0.1,2.1c0.6,2.4,2.4,3.5,5.7,3.4l62.2,1.199c0.322,0,3.174-0.195,4.375-0.322
			c0.008,0.004,0.016,0.018,0.024,0.022c0.101,0.101,0.3,0.101,0.5-0.101c5.8,0.101,11.5,0.201,16.9,0.201
			c11.553,0,21.85-0.192,31.004-0.388h-0.001c2,0,7.997-0.313,9.896-0.313c27-1,40.5-3.199,40.9-6.699l-31.699,1.8L147.121,78.582z"
			/>
	</g>
</g>
<g>
	<path fill="#333333" d="M142.721,17.531l-28.9-0.6c-2.299-0.4-3.299,0.2-2.698,1.6c0.601,1.4,1.899,2.2,4.101,1.9l17.6,0.4
		c2.101-0.9,4.801-1.6,8-2c1.101-0.1,2.199-0.3,3.4-0.4C144.921,18.332,144.421,18.031,142.721,17.531z M140.702,18.741
		c0.036-0.003,0.077-0.007,0.128-0.013c-0.003,0.001-0.006,0.002-0.01,0.003C140.766,18.736,140.736,18.738,140.702,18.741z"/>
	<path fill="#333333" d="M139.221,21.231c-3.9,0.5-5.3,2.1-4,4.6c2,6.6,2.801,14.5,2.7,23.7c0,0,0,0,0,0.1c0,0,0,0,0,0.1
		c0.101,9.1-0.7,17-2.7,23.6c-1.3,2.601,0.1,4.101,4,4.601c0.6,0.1,1.301,0.199,2,0.199l5.9,0.5c0-0.1,0-0.1,0-0.1
		c4.3-7,6.5-16.6,6.699-28.8c0-0.1,0-0.1,0-0.1c0-0.1,0-0.1,0-0.1c-0.199-12.2-2.399-22-6.699-29c0,0,0,0,0-0.1l-5.9,0.5
		C140.521,21.031,139.82,21.031,139.221,21.231z"/>
	<path fill="#333333" d="M86.221,24.031v1.6v47.9v1.5l1,2.1c1.3-0.699,1.6-7.3,0.6-19.9v-0.199c0-0.1,0-0.1,0-0.1
		c0-0.101,0-0.4,0-0.601V56.23V43.031c0-0.1,0-0.1,0-0.2c0-0.2,0-0.5,0-0.6l0,0c0-0.1,0-0.2,0-0.3c1-12.6,0.7-19.2-0.6-20
		L86.221,24.031z"/>
	<path fill="#333333" d="M144.221,80.631c-1-0.1-2-0.199-2.9-0.3c-0.1,0-0.299,0-0.5,0c-0.799-0.101-1.5-0.3-2.198-0.399
		c-2.302-0.4-4.2-1-5.802-1.601l-17.6,0.3c-2.199-0.199-3.5,0.5-4.1,1.9c-0.602,1.4,0.398,2,2.699,1.8l28.9-0.8
		C144.421,81.031,144.921,80.73,144.221,80.631z"/>
</g>
<g>
	<path fill="#333333" d="M136.203,8.756c1-1.6,1.898-0.7,2.898,2.8c1,3.2,0.7,4.7-1.1,4.7c0.1,0.1,0.3,0.2,0.5,0.4
		c0.5,0.3,1,0.4,1.6,0.2c0.4-0.1,0.9-0.5,1.2-0.9v-0.1c0.2-0.5,0.3-1.1,0.2-1.7l-1.4-5.6c-0.1-0.6-0.5-1.1-0.898-1.3
		c-0.5-0.3-1-0.4-1.602-0.3c-0.5,0.2-0.898,0.5-1.1,1C136.303,8.256,136.203,8.456,136.203,8.756z"/>
	<path fill="#666666" d="M139.104,11.556c-1-3.5-1.899-4.4-2.899-2.8c-0.101,0.3-0.101,0.6,0,1l1.3,5.6c0.1,0.1,0.2,0.3,0.301,0.5
		c0,0.1,0.1,0.2,0.199,0.4C139.803,16.256,140.104,14.756,139.104,11.556z"/>
	<path d="M138.503,16.656c-0.2-0.2-0.399-0.3-0.5-0.4c-0.101-0.2-0.2-0.3-0.2-0.4v1.5v0.6c1,0.6,2,0.9,3.301,0.8
		c0.699-0.2,1.5-0.4,2.399-0.8l-0.5-0.4l-1.7-1.6c-0.3,0.4-0.8,0.8-1.199,0.9C139.503,17.056,139.003,16.956,138.503,16.656z"/>
	<path d="M137.803,81.156v0.699v1.5c0-0.1,0.102-0.299,0.2-0.399c0.101-0.2,0.3-0.3,0.5-0.5c0.5-0.2,1-0.399,1.601-0.101
		c0.399,0.101,0.899,0.4,1.199,0.9l1.7-1.699l0.5-0.4c-0.7-0.301-1.3-0.5-1.899-0.6c-0.101-0.101-0.301-0.101-0.5-0.101l0,0
		c-0.5-0.101-0.899-0.101-1.301,0C139.104,80.557,138.503,80.756,137.803,81.156z"/>
	<path fill="#333333" d="M138.503,82.456c-0.2,0.2-0.399,0.3-0.5,0.5c1.8,0,2.101,1.5,1.101,4.601c-1,3.5-1.899,4.399-2.899,2.799
		c0,0.301,0.101,0.601,0.3,0.701c0.2,0.5,0.6,0.899,1.1,1.1c0.602,0.199,1.102,0.1,1.602-0.2c0.398-0.399,0.8-0.8,0.898-1.399
		l1.4-5.601c0.1-0.601,0-1.101-0.199-1.601v-0.1c-0.301-0.5-0.801-0.8-1.201-0.9C139.503,82.057,139.003,82.256,138.503,82.456z"/>
	<path fill="#666666" d="M137.503,83.855l-1.3,5.5c-0.102,0.4-0.102,0.701,0,1c1,1.601,1.898,0.701,2.898-2.799
		c1-3.101,0.7-4.601-1.1-4.601c-0.1,0.101-0.2,0.3-0.2,0.399C137.703,83.456,137.604,83.756,137.503,83.855z"/>
</g>
<path d="M88.541,15.54l-3.5-0.2c1,0.3,1.5,1.5,1.5,3.5c0,0.9-0.1,1.9-0.3,3.1v2.1l1-2.1C87.341,18.04,87.841,15.939,88.541,15.54z"
	/>
<path d="M86.241,77.24c0.2,1.1,0.3,2.199,0.3,3.1c0,2-0.5,3.1-1.5,3.5l3.5-0.199c-0.7-0.4-1.2-2.601-1.3-6.5l-1-2.101V77.24z"/>
<g>
	<path fill="#666666" d="M122.738,31.04h-8c-3.301,0.1-5,1.7-5,5.1v26.799c0,3.4,1.699,5.101,5,5.201h8c3.3-0.101,5-1.801,5-5.201
		V36.14C127.738,32.739,126.038,31.139,122.738,31.04z M124.839,62.939c0,1.6-0.801,2.899-2.5,3.8c0.899-0.8,1.199-2.101,1.199-3.8
		v-26.8c0-1.6-0.3-3-1.199-3.8c1.699,0.9,2.5,2.2,2.5,3.8V62.939z"/>
	<path fill="#333333" d="M122.339,66.739c1.699-0.9,2.5-2.2,2.5-3.8v-26.8c0-1.6-0.801-2.9-2.5-3.8c0.899,0.8,1.199,2.2,1.199,3.8
		v26.8C123.538,64.639,123.238,65.939,122.339,66.739z"/>
</g>
<polyline fill="none" stroke="#333333" stroke-width="0.25" stroke-linecap="round" stroke-linejoin="round" points="16.079,21.881 
	16.079,21.881 18.079,22.081 24.279,25.581 24.279,73.48 18.079,76.98 16.079,77.182 16.079,77.182 "/>
<g>
	<path fill="none" stroke="#333333" stroke-width="0.25" stroke-linecap="round" stroke-linejoin="round" d="M146.621,20.382
		c-2.9-0.1-5.6-0.1-7.9,0.3c-2.4,0.3-4.4,1-6.199,1.9l-24.301-0.2c0.2-2.3-0.699-4.6-2.8-7"/>
	<path fill="none" stroke="#333333" stroke-width="0.25" stroke-linecap="round" stroke-linejoin="round" d="M146.621,20.382
		L146.621,20.382c0.6-1.5,0.5-2.9-0.301-4.3"/>
</g>
<g>
	<path fill="none" stroke="#333333" stroke-width="0.25" stroke-linecap="round" stroke-linejoin="round" d="M148.146,78.95
		c-2.899,0.1-5.601,0.1-7.899-0.3c-2.399-0.301-4.399-1-6.2-1.9l-24.3,0.2c0.198,2.3-0.7,4.6-2.802,7"/>
	<path fill="none" stroke="#333333" stroke-width="0.25" stroke-linecap="round" stroke-linejoin="round" d="M148.146,78.95
		L148.146,78.95c0.601,1.5,0.5,2.899-0.301,4.3"/>
</g>
<path fill="none" stroke="#333333" stroke-width="0.25" stroke-linecap="round" stroke-linejoin="round" d="M156.064,78.141
	c1.701-9.201,2.601-18.701,2.5-28.4c0-0.1,0-0.1,0-0.1c0-0.1,0-0.1,0-0.1c0.101-9.7-0.799-19.2-2.5-28.5"/>
<polyline fill="none" stroke="#333333" stroke-width="0.25" stroke-linecap="round" stroke-linejoin="round" points="188.166,22.84 
	187.766,22.84 156.064,21.04 "/>
<polyline fill="none" stroke="#333333" stroke-width="0.25" stroke-linecap="round" stroke-linejoin="round" points="188.166,76.34 
	187.766,76.34 156.066,78.141 "/>
<path fill="#C1272D" stroke="#81272D" stroke-width="0.25" d="M87.121,56.223c0,0.506,0.411,0.918,0.917,0.918l0,0
	c0.506,0,0.917-0.412,0.917-0.918V42.956c0-0.506-0.411-0.917-0.917-0.917l0,0c-0.506,0-0.917,0.411-0.917,0.917V56.223z"/>
<path fill="#FFB8BA" d="M87.387,55.593c0,0.458,0.121,0.83,0.27,0.83l0,0c0.149,0,0.27-0.372,0.27-0.83V43.586
	c0-0.458-0.121-0.83-0.27-0.83l0,0c-0.149,0-0.27,0.372-0.27,0.83V55.593z"/>
</svg>
